<svg xmlns="http://www.w3.org/2000/svg" viewBox="0 0 300 200" width="300" height="200"><g transform="translate(15.0 0.0) rotate(0.0 135.0 97.5) scale(0.27491464918345254 0.2743600025325539)"><svg width="982.123" height="710.745" viewBox="0 0 982.123 710.745"><path d="m303.971 14.204-.075 182.212 599.878.247.016-38.999L632.205 15.379a8.283 8.283 0 0 0-3.839-.946z" fill="#fece2f"/><path d="m903.775 198.163-599.878-.247a1.5 1.5 0 0 1-1.5-1.501l.075-182.212a1.5 1.5 0 0 1 1.5-1.5l324.395.229a9.821 9.821 0 0 1 4.534 1.118l271.585 142.285c.494.259.804.771.804 1.329l-.016 38.999a1.5 1.5 0 0 1-1.5 1.499zm-598.378-3.247 596.878.246.015-36.591L631.509 16.708a6.816 6.816 0 0 0-3.144-.775l-322.895-.228-.074 179.211z" fill="#1a1a1a"/><path d="M538.025 451.629c-.165 315.541-.132 238.627-.143 257.437-496.742-.185-97.883-.033-536.317-.179l.122-231.806.02-25.631 536.317.179z" fill="#fff"/><path d="M538.009 482.563c0 43.555-21.62 58.982-21.62 102.571 0 13.187 1.953 29.374 3.598 45.41 3.35 32.651-20.925 61.604-53.642 64.234-40.622 3.267-69.927 12.889-103.268 14.206l174.833.082.016-23.804h-.006l.088-202.7z" fill="#fff"/><path d="M977.362 451.807a3.262 3.262 0 0 1 3.262 3.263c0 22.326-.113 251.043-.113 250.913a3.262 3.262 0 0 1-3.264 3.261l-439.336-.178.114-257.437z" fill="#fece2f"/><path d="M977.248 710.745h-.002l-439.335-.178a1.498 1.498 0 0 1-1.5-1.501l.115-257.437a1.5 1.5 0 0 1 1.5-1.499l439.336.178a4.768 4.768 0 0 1 4.761 4.763c0 11.16-.028 73.889-.056 133.827l-.056 116.43c0 .181 0 .413-.026.656h.026a4.77 4.77 0 0 1-4.763 4.761zm-437.836-3.178 437.835.178c.972 0 1.762-.791 1.763-1.762.001-1.494.113-229.004.113-250.912 0-.972-.791-1.762-1.762-1.763l-437.837-.178-.113 254.437z" fill="#1a1a1a"/><path d="M980.623 455.07v13.119c-110.65 3.051-165.811 15.189-280.099 15.189-185.697 0-270.939-22.458-327.291-22.458-51.083 0-124.169 11.558-193.998 11.558-64.02 0-104.926-11.076-177.284-12.398l.016-8.631 975.393.358a3.262 3.262 0 0 1 3.262 3.263z" fill="#1b1b1b"/><path d="M700.524 484.878c-119.826 0-196.958-9.237-253.278-15.981-30.218-3.618-54.086-6.477-74.013-6.477-23.484 0-51.943 2.477-82.072 5.099-34.791 3.028-74.223 6.459-111.926 6.459-32.599 0-59.013-2.843-86.977-5.852-26.94-2.899-54.797-5.897-90.335-6.546a1.5 1.5 0 0 1-1.473-1.503l.016-8.631a1.5 1.5 0 0 1 1.5-1.497l488.846.179 485.843.178c.209 0 .455 0 .705.026v-.026a4.768 4.768 0 0 1 4.761 4.763v13.119c0 .812-.647 1.477-1.459 1.5-49.243 1.358-87.69 4.534-124.873 7.605-47.22 3.901-91.822 7.585-155.268 7.585zM373.233 459.42c20.106 0 44.052 2.868 74.37 6.498 56.244 6.736 133.274 15.96 252.921 15.96 63.322 0 107.864-3.679 155.021-7.575 36.854-3.044 74.952-6.191 123.578-7.573v-11.66c0-.972-.791-1.762-1.762-1.763L3.465 452.95l-.011 5.659c34.967.706 62.495 3.668 89.126 6.534 27.882 3.001 54.217 5.835 86.656 5.835 37.572 0 76.936-3.426 111.666-6.448 30.196-2.628 58.718-5.11 82.332-5.11z" fill="#1b1b1b"/><path d="m429.121 196.46-.098 255.121-356.927-.147.098-255.121z" fill="#fff"/><path d="m429.023 453.08-356.927-.147a1.5 1.5 0 0 1-1.5-1.5l.098-255.121a1.502 1.502 0 0 1 1.5-1.499l356.927.147a1.5 1.5 0 0 1 1.5 1.5l-.059 154.072-.039 101.049a1.5 1.5 0 0 1-1.5 1.5zm-355.427-3.146 353.927.146.038-99.55.059-152.571-353.927-.146-.097 252.12z" fill="#1a1a1a"/><path d="M363.897 240.72a3.262 3.262 0 0 1 3.262 3.263c-.013 26.088-.045 85.113-.047 81.144l-.03 78.883a3.26 3.26 0 0 1-3.261 3.262c-70.388-.034-203.386-.084-226.505-.093a3.25 3.25 0 0 1-3.247-3.264l.061-160.026a3.262 3.262 0 0 1 3.264-3.262z" fill="#fece2f"/><path d="M363.823 408.772h-.003c-61.898-.03-172.214-.072-213.646-.088l-12.858-.005c-2.618 0-4.748-2.138-4.747-4.765l.061-160.026c0-1.272.497-2.468 1.396-3.367a4.732 4.732 0 0 1 3.367-1.394h.002l226.503.093c1.272 0 2.468.496 3.367 1.396s1.395 2.096 1.394 3.369l-.045 80.699c0 .095 0 .209-.005.335.002.036.004.072.004.108v.177l-.031 78.708a4.73 4.73 0 0 1-1.394 3.367 4.727 4.727 0 0 1-3.365 1.395zm-226.43-166.646c-.471 0-.913.183-1.246.516s-.517.776-.517 1.246l-.061 160.026c0 .972.784 1.763 1.748 1.764l12.858.005c41.433.016 151.748.059 213.647.088a1.76 1.76 0 0 0 1.759-1.762l.031-78.883v-.054c.006-3.925.034-56.207.046-81.09 0-.471-.183-.913-.515-1.246a1.752 1.752 0 0 0-1.247-.516l-226.503-.093z" fill="#1a1a1a"/><path d="m831.519 196.623-.098 255.121-402.398-.163.098-255.121z" fill="#fece2f"/><path d="m831.421 453.243-402.398-.163a1.5 1.5 0 0 1-1.499-1.5l.031-82.186.066-172.935a1.5 1.5 0 0 1 1.5-1.499l402.398.163a1.5 1.5 0 0 1 1.499 1.501l-.098 255.121a1.5 1.5 0 0 1-1.5 1.499zm-400.897-3.163 399.398.162.097-252.12-399.398-.162-.066 171.435-.031 80.685z" fill="#1a1a1a"/><path d="M797.944 408.82h-.002l-216.921-.093a4.773 4.773 0 0 1-4.761-4.774c.04-88.498.045-106.818.05-125.602l.011-34.692a4.75 4.75 0 0 1 1.391-3.37 4.718 4.718 0 0 1 3.368-1.403h.002l216.93.078a4.72 4.72 0 0 1 3.366 1.398 4.735 4.735 0 0 1 1.39 3.367l-.062 160.33c0 1.272-.496 2.468-1.396 3.367s-2.095 1.394-3.367 1.394zM581.081 241.886a1.77 1.77 0 0 0-1.759 1.773l-.011 34.692c-.005 18.784-.01 37.104-.05 125.603 0 .977.79 1.773 1.762 1.773l216.921.093c.471 0 .913-.183 1.246-.516s.517-.775.517-1.246l.062-160.33a1.755 1.755 0 0 0-1.757-1.764l-216.93-.078zm169.254 448.912h-.146c-.063 0-.126-.004-.187-.012-.25.011-.513.01-.778.011l-168.217-.078c-2.619-.001-4.749-2.145-4.748-4.778l.077-183.861v-2.841l.012-.242c.121-1.424 1.252-1.5 1.49-1.5.446 0 .759.129.979.33.694-.38 1.491-.537 2.29-.582 74.31.034 76.686.037 77.979.039q1.417.002 93.572.04a1.498 1.498 0 0 1 1.5 1.501l-.08 190.473a1.5 1.5 0 0 1-1.5 1.499h-2.242zm-170.998-188.82-.078 183.965c0 .979.785 1.776 1.75 1.776l169.171.078h.898l.079-187.474q-90.55-.037-92.074-.039c-1.293-.002-3.669-.005-77.976-.039a1.76 1.76 0 0 0-1.251.518c-.327.326-.51.756-.519 1.215z" fill="#1a1a1a"/><path d="M828.191 690.829h-.002l-75.612-.031a1.5 1.5 0 0 1-1.499-1.501l.002-5.524v-1.394l.078-183.555a1.5 1.5 0 0 1 1.5-1.499l75.599.031c1.273 0 2.47.5 3.371 1.408a4.755 4.755 0 0 1 1.39 3.373c-.058 131.908-.074 173.619-.074 183.663h.009v.132l.001.117c0 .061 0 .123-.003.184l-.002 1.023c0 .201 0 .397-.004.585v.65h-.035c-.091.91-.402 1.554-1.466 1.523a2.01 2.01 0 0 1-.506-.059 4.714 4.714 0 0 1-2.747.873zm-74.113-3.03 74.112.03c.469 0 .91-.184 1.243-.517.29-.291.468-.664.51-1.066l.009-29.141.065-154.97c0-.474-.184-.921-.519-1.258a1.74 1.74 0 0 0-1.243-.521l-74.099-.03-.075 178.092v.029l-.004 9.352z" fill="#1a1a1a"/><path d="m536.818 196.509-.114 255.121-107.712-.033.114-255.137 107.713.049z" fill="#fece2f"/><path d="M514.212 308.121c0-14.243 22.554-26.643 22.59-74.609l-.107 218.118-36.49-.016c-2.266-10.98-3.872-21.047-3.872-28.976 0-26.806 25.353-45.014 25.353-65.114s-7.473-35.159-7.473-49.402z" fill="#fff"/><path d="M297.741 2.443 1.58 157.292l-.015 35.736a3.263 3.263 0 0 0 3.262 3.264l596.615.246.016-38.999L305.425 2.446a8.285 8.285 0 0 0-7.684-.003z" fill="#fece2f"/><path d="M831.519 196.623v20.247c-168.199-22.915-190.385-1.517-348.606-1.517-99.804 0-156.645-9.071-230.566-9.071-52.698 0-117.6 10.507-180.169 16.478l.016-26.447z" fill="#1b1b1b"/><path d="M72.178 224.26a1.503 1.503 0 0 1-1.501-1.501l.016-26.447a1.5 1.5 0 0 1 1.5-1.499l759.325.31a1.5 1.5 0 0 1 1.499 1.5v20.247a1.498 1.498 0 0 1-1.703 1.486c-107.108-14.592-155.375-11.157-216.483-6.808-34.941 2.486-74.544 5.305-131.921 5.305-53.688 0-94.062-2.566-133.106-5.047-32.561-2.069-63.315-4.024-97.46-4.024-35.772 0-76.577 4.782-119.777 9.846-19.784 2.319-40.241 4.716-60.249 6.626a1.363 1.363 0 0 1-.142.007zm1.515-26.446-.014 23.295c19.453-1.88 39.315-4.208 58.541-6.461 43.29-5.074 84.179-9.866 120.127-9.866 34.24 0 65.041 1.958 97.65 4.03 38.998 2.478 79.323 5.041 132.916 5.041 57.27 0 96.816-2.814 131.708-5.297 60.956-4.338 109.175-7.769 215.399 6.597v-17.03l-756.326-.309z" fill="#1b1b1b"/><path d="M603.055 157.347h300.724v39.02H603.055z" fill="#1b1b1b"/><path d="m903.767 197.929-300.724-.124a1.5 1.5 0 0 1-1.5-1.501l.024-39.02a1.5 1.5 0 0 1 1.5-1.499l300.724.124a1.498 1.498 0 0 1 1.5 1.501l-.024 39.02a1.5 1.5 0 0 1-1.5 1.499zm-299.223-3.123 297.724.123.022-36.02-297.724-.123z" fill="#1b1b1b"/><path d="m903.791 159.164-302.333-.125a1.5 1.5 0 1 1 .001-3l302.333.125a1.5 1.5 0 1 1-.001 3z" fill="#1a1a1a"/><path d="M1.572 157.416H601.45v38.999H1.572z" fill="#fff"/><path d="M136.11 524.665h272.706a2 2 0 0 1 2 2v182.321H134.11V526.665a2 2 0 0 1 2-2z" fill="#fece2f"/><path d="m410.778 710.544-276.706-.117a1.5 1.5 0 0 1-1.499-1.501l.075-182.321a3.504 3.504 0 0 1 3.5-3.499h.002l272.706.116a3.503 3.503 0 0 1 3.498 3.501l-.075 182.321a1.502 1.502 0 0 1-1.5 1.499zm-275.206-3.116 273.706.116.074-180.821a.5.5 0 0 0-.5-.5l-272.706-.116a.5.5 0 0 0-.5.5l-.075 180.821z" fill="#1a1a1a"/><path d="m159.708 708.477.065-154.962a3.263 3.263 0 0 1 3.264-3.262l218.908.094a3.263 3.263 0 0 1 3.262 3.264l-.064 154.865" fill="#fff"/><path d="M385.143 709.977a1.5 1.5 0 0 1-1.499-1.501l.064-154.865c0-.972-.79-1.763-1.762-1.764l-218.908-.094c-.47 0-.913.183-1.246.516s-.517.776-.517 1.246l-.065 154.962a1.5 1.5 0 1 1-2.999-.002l.065-154.962c0-1.272.497-2.468 1.396-3.367s2.095-1.394 3.366-1.394h.003l218.908.094a4.768 4.768 0 0 1 4.761 4.765l-.064 154.865a1.5 1.5 0 0 1-1.5 1.499z" fill="#1a1a1a"/><path d="M385.198 578.37H159.753a1.5 1.5 0 0 1 0-3h225.446a1.5 1.5 0 0 1 0 3zm0 26.324H159.753a1.5 1.5 0 0 1 0-3h225.446a1.5 1.5 0 0 1 0 3zm-.016 26.325H159.737a1.5 1.5 0 0 1 0-3h225.445a1.5 1.5 0 0 1 0 3zm-.016 26.325H159.721a1.5 1.5 0 0 1 0-3h225.445a1.5 1.5 0 0 1 0 3zm0 26.324H159.721a1.5 1.5 0 0 1 0-3h225.445a1.5 1.5 0 0 1 0 3z" fill="#1a1a1a"/><g fill="#fffdfd"><path d="M554.542 158.793a1.5 1.5 0 0 1-1.5-1.5v-24.338a1.5 1.5 0 0 1 3 0v24.338a1.5 1.5 0 0 1-1.5 1.5zm-29.097 0a1.5 1.5 0 0 1-1.5-1.5v-39.575a1.5 1.5 0 0 1 3 0v39.575a1.5 1.5 0 0 1-1.5 1.5zm-29.113 0a1.5 1.5 0 0 1-1.5-1.5v-54.828a1.5 1.5 0 0 1 3 0v54.828a1.5 1.5 0 0 1-1.5 1.5zm-29.096 0a1.5 1.5 0 0 1-1.5-1.5V87.227a1.5 1.5 0 0 1 3 0v70.066a1.5 1.5 0 0 1-1.5 1.5zm-29.113 0a1.5 1.5 0 0 1-1.5-1.5V71.974a1.5 1.5 0 0 1 3 0v85.319a1.5 1.5 0 0 1-1.5 1.5zm-29.096 0a1.5 1.5 0 0 1-1.5-1.5V56.721a1.5 1.5 0 0 1 3 0v100.572a1.5 1.5 0 0 1-1.5 1.5zm-29.113 0a1.5 1.5 0 0 1-1.5-1.5V41.467a1.5 1.5 0 0 1 3 0v115.825a1.5 1.5 0 0 1-1.5 1.5zm-29.096 0a1.5 1.5 0 0 1-1.5-1.5V26.23a1.5 1.5 0 0 1 3 0v131.063a1.5 1.5 0 0 1-1.5 1.5zm-29.113 0a1.5 1.5 0 0 1-1.5-1.5V10.977a1.5 1.5 0 0 1 3 0v146.316a1.5 1.5 0 0 1-1.5 1.5zm-29.097 0a1.5 1.5 0 0 1-1.5-1.5V5.113a1.5 1.5 0 0 1 3 0v152.18a1.5 1.5 0 0 1-1.5 1.5zm-29.112 0a1.5 1.5 0 0 1-1.5-1.5V20.334a1.5 1.5 0 0 1 3 0v136.959a1.5 1.5 0 0 1-1.5 1.5zm-29.097 0a1.5 1.5 0 0 1-1.5-1.5V35.555a1.5 1.5 0 0 1 3 0v121.738a1.5 1.5 0 0 1-1.5 1.5zm-29.112 0a1.5 1.5 0 0 1-1.5-1.5V50.776a1.5 1.5 0 0 1 3 0v106.516a1.5 1.5 0 0 1-1.5 1.5zm-29.097 0a1.5 1.5 0 0 1-1.5-1.5V65.997a1.5 1.5 0 0 1 3 0v91.295a1.5 1.5 0 0 1-1.5 1.5zm-29.112 0a1.5 1.5 0 0 1-1.5-1.5V81.219a1.5 1.5 0 0 1 3 0v76.074a1.5 1.5 0 0 1-1.5 1.5zm-29.097 0a1.5 1.5 0 0 1-1.5-1.5V96.424a1.5 1.5 0 0 1 3 0v60.869a1.5 1.5 0 0 1-1.5 1.5zm-29.113 0a1.5 1.5 0 0 1-1.5-1.5v-45.648a1.5 1.5 0 0 1 3 0v45.648a1.5 1.5 0 0 1-1.5 1.5zm-29.096 0a1.5 1.5 0 0 1-1.5-1.5v-30.426a1.5 1.5 0 0 1 3 0v30.426a1.5 1.5 0 0 1-1.5 1.5z"/></g><path d="M785.349 331.125H683.442v-3.503h101.907z" fill="#1b1b1b"/><path d="M785.349 332.624H683.442a1.5 1.5 0 0 1-1.5-1.5v-3.503a1.5 1.5 0 0 1 1.5-1.5h101.907a1.5 1.5 0 0 1 1.5 1.5v3.503a1.5 1.5 0 0 1-1.5 1.5zm-100.407-3h98.907v-.503h-98.907z" fill="#1b1b1b"/><ellipse cx="755.429" cy="315.406" fill="#1b1b1b" rx="5.044" ry="10.902"/><path d="M755.429 327.808c-3.731 0-6.544-5.332-6.544-12.402s2.813-12.402 6.544-12.402 6.544 5.332 6.544 12.402-2.813 12.402-6.544 12.402zm0-21.805c-1.445 0-3.544 3.663-3.544 9.402s2.099 9.402 3.544 9.402 3.544-3.663 3.544-9.402-2.099-9.402-3.544-9.402z" fill="#1b1b1b"/><path d="M759.421 267.172c4.202 11.336 5.281 33.197-3.355 40.484-4.858-12.955 3.355-40.484 3.355-40.484z" fill="#1b1b1b"/><path d="M756.065 309.157a1.498 1.498 0 0 1-1.404-.974c-4.978-13.275 2.981-40.296 3.323-41.44a1.501 1.501 0 0 1 2.844-.092c3.947 10.649 6.055 33.842-3.795 42.152a1.5 1.5 0 0 1-.967.354zm3.437-36.421c-1.895 7.776-4.876 22.621-2.74 32 5.195-6.879 5.187-21.517 2.74-32z" fill="#1b1b1b"/><path d="M749.498 273.35c-4.321 9.606-5.431 28.132 3.451 34.307 4.996-10.978-3.451-34.307-3.451-34.307z" fill="#1b1b1b"/><path d="M752.948 309.157c-.303 0-.602-.092-.856-.268-9.405-6.539-8.629-25.78-3.962-36.154a1.5 1.5 0 0 1 2.778.104c.353.976 8.595 24.035 3.406 35.439a1.5 1.5 0 0 1-1.365.879zm-3.536-31.178c-2.569 8.869-2.602 21.417 2.864 27.134 2.223-7.917-.925-20.632-2.864-27.134z" fill="#1b1b1b"/><path d="M740.127 288.698c1.085 7.199 7.363 18.399 14.816 18.693-1.207-8.249-14.816-18.693-14.816-18.693z" fill="#1b1b1b"/><path d="m754.943 308.891-.059-.001c-8.246-.325-15.016-11.849-16.24-19.968a1.5 1.5 0 0 1 2.396-1.414c.575.442 14.107 10.914 15.387 19.665a1.499 1.499 0 0 1-1.484 1.717zm-12.16-15.996c1.924 5.266 5.733 10.937 10.068 12.551-1.722-4.308-6.389-9.219-10.068-12.551zm28.502-9.688c2.68 8.7-.424 22.843-12.054 24.184-3.129-9.963 12.054-24.184 12.054-24.184z" fill="#1b1b1b"/><path d="M759.23 308.891a1.5 1.5 0 0 1-1.43-1.051c-3.372-10.74 11.812-25.121 12.459-25.728a1.498 1.498 0 0 1 2.459.653c1.617 5.25 1.474 13.263-2.49 19.332-2.558 3.916-6.301 6.262-10.825 6.783-.058.007-.116.01-.173.01zm11.207-22.686c-3.592 3.826-11.007 12.659-10.057 19.475 3.046-.674 5.51-2.427 7.336-5.223 2.481-3.799 3.49-9.349 2.72-14.252zm-35.101 114.353h-1.882v-69.434h1.882z" fill="#1b1b1b"/><rect fill="#1b1b1b" height="72.434" rx="1.5" width="4.882" x="731.954" y="329.624"/><path d="m734.243 398.353 34.026 7.14H700.52z" fill="#1b1b1b"/><path d="M768.269 406.993H700.52a1.5 1.5 0 0 1-.311-2.968l33.723-7.14c.204-.043.415-.043.619 0l34.026 7.14a1.5 1.5 0 0 1-.308 2.968zm-53.423-3h38.971l-19.573-4.107z" fill="#1b1b1b"/><path d="m536.703 453.129-107.712-.033a1.5 1.5 0 0 1-1.5-1.501l.114-255.09v-.047c0-.719.244-1.093.731-1.288.225-.134.488-.212.769-.212h.002l.141.004c.059.004.116.01.172.018.393-.022.848-.022 1.368-.021l106.031.048a1.5 1.5 0 0 1 1.499 1.501l-.114 255.121a1.5 1.5 0 0 1-1.5 1.499zm-106.212-3.032 104.712.032.113-252.121-40.103-.018-64.61-.029-.112 252.137z" fill="#1a1a1a"/><path d="M587.117 298.177c-3.661 35.202 21.865 30.968 36.714 12.494 11.554-14.375 21.305-21.236 37.014-27.607 21.833-8.853 32.982-25.542 14.708-31.559-18.571-6.114-83.022-5.378-88.436 46.671zm62.492 2.196c-20.476 9.193-14.825 36.743 10.643 23.781 27.031-13.758 5.09-30.844-10.643-23.781zm26.561 248.044c9.743.443 12.605 5.675 10.37 11.347-2.543 6.652-8.609 11.347-13.5 16.63-16.861 18.209.018 34.525 21.717 22.89 39.265-18.195 52.511-54.259 44.217-73.758-7.542-17.732-36.587-19.76-53.022-14.869-15.457 4.695-37.565 35.999-9.783 37.76z" fill="#fff"/><path d="M655.753 575.478c5.789-.091 10.403-3.854 12.326-8.804 4.5-12.521-6.261-12.717-14.478-8.217-9.196 4.891-13.304 17.412 2.152 17.021zM285.199 283.382c11.381.261 17.187-2.098 22.709-.52 3.64 1.04 7.289 4.161 7.107 7.974-.165 3.467-2.947 6.067-3.987 9.361-3.199 9.597 10.888 24.876 30.51 8.321 21.799-19.016 17.203-45.9-3.12-53.91-9.961-3.926-41.484-4.767-57.206 4.68-10.321 6.202-9.361 23.921 3.987 24.095zM793.4 619.74c-4.831-3.558-18.035 3.114-24.435 9.048-6.644 6.16-9.431 22.331 3.988 18.681 13.133-3.864 27.476-22.551 20.447-27.729zm-16.945 41.446c-3.223 3.516-6.3 7.764-6.3 12.452-.103 2.346.968 4.901 3.815 5.702 5.534 1.555 12.13-4.705 17.867-5.995 8.534-1.918 19.166 5.149 26.517-.879 10.564-8.664 2.778-27.842-11.281-29.299-10.976-1.137-23.733 10.548-30.619 18.019z" fill="#fff"/><path d="m601.442 198.038-596.615-.246a4.732 4.732 0 0 1-3.368-1.396 4.735 4.735 0 0 1-1.394-3.369l.015-35.736c0-.558.31-1.07.805-1.329L297.046 1.114a9.788 9.788 0 0 1 9.075.004l296.033 155.093c.494.259.804.771.804 1.329l-.016 38.999a1.5 1.5 0 0 1-1.5 1.499zM3.08 158.201l-.014 34.828c0 .471.183.914.516 1.247s.775.517 1.247.517l595.115.245.015-36.591L304.729 3.775a6.788 6.788 0 0 0-6.293-.003z" fill="#1a1a1a"/><path d="M601.442 198.038h-.003c-262.822-.5-412.982-.263-493.653-.135Q2.06 198.07.477 196.226c-.603-.703-.481-1.487-.429-1.821.006-.039.014-.08.017-.123l.015-36.99a1.502 1.502 0 0 1 1.5-1.499l599.878.247a1.498 1.498 0 0 1 1.5 1.501l-.016 38.999a1.502 1.502 0 0 1-1.5 1.499zm-296.096-3.305c77.224 0 174.015.073 294.597.302l.015-35.996-596.878-.246-.015 35.462c3.9.807 25.985.772 104.717.648 43.448-.069 107.059-.169 197.565-.169z" fill="#1a1a1a"/><path d="M536.801 234.979a1.5 1.5 0 0 1-1.493-1.366l-3.312-36.97a1.5 1.5 0 0 1 1.494-1.634h3.328a1.498 1.498 0 0 1 1.5 1.501l-.016 36.97a1.5 1.5 0 0 1-1.433 1.498l-.068.001zm-1.671-36.97.186 2.078v-2.078zm2.752 512.557L5.72 710.387c-3.075 0-5.578-2.137-5.578-4.763l.123-217.189.02-36.987a1.5 1.5 0 0 1 1.5-1.499l536.24.179a1.498 1.498 0 0 1 1.5 1.501l-.143 257.438a1.5 1.5 0 0 1-1.5 1.499zM3.284 452.95l-.019 35.486-.123 217.188c0 .938 1.205 1.762 2.578 1.762l530.662.179.142-254.437-533.24-.178z" fill="#1a1a1a"/><ellipse cx="621.142" cy="672.401" fill="#1b1b1b" rx="6.652" ry="14.376"/><path d="M621.142 688.277c-4.647 0-8.152-6.825-8.152-15.876s3.504-15.876 8.152-15.876 8.152 6.825 8.152 15.876-3.504 15.876-8.152 15.876zm0-28.752c-2.432 0-5.152 5.507-5.152 12.876s2.72 12.876 5.152 12.876 5.152-5.507 5.152-12.876-2.72-12.876-5.152-12.876z" fill="#1b1b1b"/><path d="M626.406 608.798c5.54 14.948 6.964 43.775-4.425 53.384-6.406-17.083 4.425-53.384 4.425-53.384z" fill="#1b1b1b"/><path d="M621.981 663.682a1.498 1.498 0 0 1-1.404-.974c-6.509-17.356 3.944-52.838 4.392-54.34a1.501 1.501 0 0 1 2.844-.092c5.865 15.824 6.886 45.138-4.864 55.052a1.5 1.5 0 0 1-.967.354zm4.532-49.524c-2.494 9.83-7.317 32.041-3.846 45.222 7.861-9.25 7.637-30.841 3.846-45.222z" fill="#1b1b1b"/><path d="M613.321 616.944c-5.698 12.667-7.162 37.095 4.55 45.238 6.588-14.476-4.55-45.238-4.55-45.238z" fill="#1b1b1b"/><path d="M617.871 663.682c-.303 0-.602-.092-.856-.268-12.203-8.484-11.148-33.554-5.062-47.085a1.5 1.5 0 0 1 2.778.104c.463 1.28 11.268 31.508 4.505 46.37a1.5 1.5 0 0 1-1.365.878zm-4.659-42.264c-3.953 12.153-4.213 30.599 4.001 38.305 3.596-11.132-1.463-30.107-4.001-38.305z" fill="#1b1b1b"/><path d="M600.964 637.183c1.431 9.493 9.71 24.261 19.537 24.649-1.592-10.878-19.537-24.649-19.537-24.649z" fill="#1b1b1b"/><path d="m620.501 663.332-.059-.001c-10.628-.419-19.372-15.381-20.961-25.924a1.5 1.5 0 0 1 2.396-1.414c.752.577 18.448 14.272 20.108 25.622a1.5 1.5 0 0 1-1.484 1.717zm-17.052-22.138c2.456 7.846 8.365 17.004 15.081 18.823-2.245-6.905-10.387-14.737-15.081-18.823zm38.601-11.252c3.533 11.472-.559 30.122-15.894 31.89-4.125-13.138 15.894-31.89 15.894-31.89z" fill="#1b1b1b"/><path d="M626.155 663.332a1.5 1.5 0 0 1-1.43-1.051c-4.358-13.878 15.455-32.642 16.3-33.434a1.501 1.501 0 0 1 2.459.653c2.099 6.816 1.916 17.217-3.228 25.091-3.292 5.041-8.109 8.06-13.928 8.731-.058.007-.116.01-.173.01zm15.083-30.452c-4.533 4.724-15.75 17.566-13.958 27.264 4.37-.831 7.885-3.246 10.464-7.194 3.492-5.347 4.814-13.27 3.494-20.07z" fill="#1b1b1b"/></svg></g></svg>